HIERARCHY
ROOT Hips
{
  OFFSET 0 0 0
  CHANNELS 6 Xposition Yposition Zposition Zrotation Yrotation Xrotation
  JOINT LeftThigh
  {
    OFFSET 8.409438 0 -5.917753
    CHANNELS 3 Zrotation Yrotation Xrotation
    JOINT LeftLeg
    {
      OFFSET 0 0 -42.358652
      CHANNELS 3 Zrotation Yrotation Xrotation
      JOINT LeftFoot
      {
        OFFSET 0 0 -39.357303
        CHANNELS 3 Zrotation Yrotation Xrotation
      }
    }
  }
  JOINT RightThigh
  {
    OFFSET -8.409438 0 -5.917753
    CHANNELS 3 Zrotation Yrotation Xrotation
    JOINT RightLeg
    {
      OFFSET 0 0 -42.358652
      CHANNELS 3 Zrotation Yrotation Xrotation
      JOINT RightFoot
      {
        OFFSET 0 0 -39.357303
        CHANNELS 3 Zrotation Yrotation Xrotation
      }
    }
  }
  JOINT SpineLow
  {
    OFFSET 0 0 4.719101
    CHANNELS 3 Zrotation Yrotation Xrotation
    JOINT SpineMid
    {
      OFFSET 0 0 12.899191
      CHANNELS 3 Zrotation Yrotation Xrotation
      JOINT Chest
      {
        OFFSET 0 0 12.899191
        CHANNELS 3 Zrotation Yrotation Xrotation
        JOINT LeftShoulder
        {
          OFFSET 7.550562 1.41573 9.438202
          CHANNELS 3 Zrotation Yrotation Xrotation
          JOINT LeftArm
          {
            OFFSET 9.155056 0 4.247191
            CHANNELS 3 Zrotation Yrotation Xrotation
            JOINT LeftForearm
            {
              OFFSET 0 0 25.771955
              CHANNELS 3 Zrotation Yrotation Xrotation
              JOINT LeftHand
              {
                OFFSET 0 0 25.197169
                CHANNELS 3 Zrotation Yrotation Xrotation
              }
            }
          }
        }
        JOINT RightShoulder
        {
          OFFSET -7.550562 1.41573 9.438202
          CHANNELS 3 Zrotation Yrotation Xrotation
          JOINT RightArm
          {
            OFFSET -9.155056 0 4.247191
            CHANNELS 3 Zrotation Yrotation Xrotation
            JOINT RightForearm
            {
              OFFSET 0 0 -25.771955
              CHANNELS 3 Zrotation Yrotation Xrotation
              JOINT RightHand
              {
                OFFSET 0 0 -25.197169
                CHANNELS 3 Zrotation Yrotation Xrotation
              }
            }
          }
        }
        JOINT Neck
        {
          OFFSET 0 0 15.101124
          CHANNELS 3 Zrotation Yrotation Xrotation
          JOINT Head
          {
            OFFSET 0 0 11.325843
            CHANNELS 3 Zrotation Yrotation Xrotation
            End Site
            {
              OFFSET 0 0 14.157303
            }
          }
        }
      }
    }
  }
}
MOTION
Frames: 13
Frame Time: 0.0
0.0  93.25843  0.0  -0.595406  -57.650903  -90.855049  22.273375  -9.27939  6.421558  12.055766  -2.139096  11.818037  17.922171  3.207566  6.080548  6.158601  -5.069293  -19.700512  4.277022  11.686848  17.160608  10.66425  3.097787  1.220932  3.447086  -0.431885  -0.008258  9.423331  -1.176585  -0.084001  9.42333  -1.176585  -0.084001  -11.189273  1.045157  6.880261  -86.508383  37.115399  -58.502435  -16.973901  -4.022664  122.678885  111.538785  33.702152  34.854137  -6.344313  -13.268466  29.995395  91.130266  39.200146  56.238091  -11.510955  -1.631327  -112.602828  60.365865  -9.58478  -14.744591  12.248247  0.080078  4.574365  9.186197  0.151841  3.430803  
0.0  93.25843  0.0  -1.984942  -55.162081  -89.66697  22.895083  -10.541528  5.693663  10.742124  -2.052926  11.483686  17.490906  3.131877  6.057393  6.302034  -5.207264  -18.800798  2.905021  11.664492  15.934605  10.434107  3.072191  1.219817  2.872518  -0.628388  -0.079197  7.855399  -1.705448  -0.290761  7.855398  -1.705448  -0.290761  -10.97543  -0.19336  7.547532  -82.311746  38.158723  -52.999932  -18.047996  -7.562278  121.802181  111.848433  34.174844  35.981482  -7.229093  -12.176598  29.573695  88.678951  36.497117  56.533828  -12.286763  -0.42802  -111.934377  61.91316  -10.011588  -14.847387  12.6645  0.22151  4.740756  9.497326  0.264553  3.552782  
0.0  93.25843  0.0  -3.270006  -52.143064  -88.613141  23.673066  -11.952743  4.856646  9.148521  -1.837437  11.025359  17.02639  3.0545  6.044708  5.765112  -5.361844  -18.038923  1.908389  11.370156  14.923578  10.24783  3.079698  1.286967  2.187843  -0.842195  -0.154724  5.987815  -2.285883  -0.498878  5.987815  -2.285883  -0.498878  -10.383235  -1.33942  8.319019  -78.117544  39.670318  -47.245606  -18.863678  -12.109073  120.510476  112.239692  34.434801  37.033602  -9.00788  -11.290117  28.322251  87.621076  32.834961  57.774903  -13.452193  0.473294  -111.596559  63.741712  -10.603125  -15.002406  13.194017  0.327154  4.949523  9.893611  0.352474  3.707119  
0.0  93.25843  0.0  -4.400414  -48.613189  -87.579345  24.462871  -13.365817  3.779384  7.376821  -1.517905  10.452539  16.414271  2.955712  5.967951  4.693568  -5.416378  -17.48546  1.439255  10.786099  14.163894  9.871871  3.067773  1.371916  1.429314  -0.856591  -0.120737  3.912653  -2.333322  -0.380666  3.912653  -2.333322  -0.380666  -9.643962  -3.758236  8.288085  -73.008134  41.83715  -40.70809  -19.502338  -17.628195  118.69705  112.608223  34.371687  37.965469  -9.096099  -11.430023  27.422589  84.539826  30.79643  57.624262  -14.555712  2.374889  -111.653475  65.487868  -11.267619  -14.961258  13.77422  -0.037681  4.425153  10.331583  0.071554  3.321717  
0.0  93.25843  0.0  -5.247618  -44.673605  -86.804014  25.139086  -14.655497  2.628193  5.715329  -1.10645  10.010317  15.485673  2.753159  5.677702  3.095187  -5.321978  -16.974639  1.014662  10.157493  13.468055  9.477181  3.046949  1.474465  0.73967  -1.134038  -0.184198  2.03181  -3.093788  -0.538498  2.03181  -3.093788  -0.538498  -9.407847  -4.227017  8.682603  -66.8775  44.297409  -33.149201  -19.566157  -24.136465  116.183917  112.559688  33.84725  38.648429  -10.410881  -9.508525  27.181691  81.395445  29.2789  57.093231  -16.608341  4.775822  -111.538484  67.284722  -12.197984  -15.183661  13.871178  0.357603  4.634315  10.401353  0.373675  3.469729  
0.0  93.25843  0.0  -5.881329  -40.595713  -86.080007  25.681049  -15.796079  1.229942  3.855842  -0.732081  9.498452  14.680232  2.658206  5.532942  1.338101  -5.103036  -16.646029  0.423809  9.530531  12.822571  9.139329  3.040489  1.569907  0.036952  -1.312653  -0.29982  0.117396  -3.587484  -0.822278  0.117396  -3.587484  -0.822279  -9.043168  -5.548442  9.520743  -59.448399  46.828294  -24.890624  -19.000293  -31.105253  112.717662  112.058534  32.805246  38.729779  -11.326089  -8.486043  26.593771  77.35866  27.793224  56.916974  -18.741912  7.669304  -111.72455  68.27458  -12.84876  -14.702713  13.962979  0.374495  4.839514  10.470017  0.391748  3.62331  
0.0  93.25843  0.0  -6.345848  -36.47377  -85.463936  25.91027  -16.725085  -0.23103  1.998917  -0.393273  9.048262  13.768357  2.596804  5.294359  -0.200407  -4.76069  -16.457507  -0.48403  8.998175  12.263676  8.878386  3.044953  1.655434  -0.696986  -1.586325  -0.422327  -1.87984  -4.347684  -1.109985  -1.87984  -4.347684  -1.109985  -8.055624  -6.915412  10.556013  -51.599352  49.282686  -16.613112  -17.084131  -37.989274  107.580567  110.781192  31.472598  37.177357  -11.402604  -7.259452  25.088931  72.497675  26.010275  57.169681  -20.037167  9.764589  -112.268833  68.217378  -13.850752  -14.391801  14.223493  0.701128  5.191521  10.662454  0.647181  3.879766  
0.0  93.25843  0.0  -6.749084  -32.416363  -84.881199  25.679237  -17.393325  -1.696137  0.238459  -0.1836  8.705624  13.261942  2.47723  5.191648  -1.27989  -4.444251  -16.360745  -1.778801  8.666787  11.750531  8.821453  3.102452  1.736932  -1.395814  -1.75636  -0.528931  -3.782842  -4.829311  -1.345934  -3.782842  -4.829311  -1.345934  -7.309099  -9.011817  11.389238  -42.797754  51.389855  -7.936617  -12.625835  -43.641463  100.005999  108.933663  29.777812  34.116715  -11.283309  -6.675461  24.441748  67.330334  24.976138  56.766042  -19.791716  10.757091  -112.803718  66.913149  -14.152136  -13.322635  14.402449  0.609146  5.323909  10.797411  0.582803  3.981161  
0.0  93.25843  0.0  -7.076085  -28.673835  -84.425017  25.0305  -17.801366  -3.010736  -1.283677  -0.134721  8.415747  13.040673  2.352884  5.185783  -1.66826  -4.115088  -16.25633  -3.107848  8.589246  11.343848  8.794502  3.19772  1.749471  -1.892733  -2.019864  -0.630143  -5.131644  -5.566197  -1.566302  -5.131645  -5.566197  -1.566302  -7.478346  -10.099002  11.805251  -35.507776  52.369357  -1.030058  -5.193411  -46.440256  91.370308  107.154673  27.416107  32.116438  -12.0374  -4.953394  23.668215  62.749677  23.47453  55.556966  -18.325039  10.4433  -112.878945  65.2882  -14.304429  -11.726364  14.11981  0.856154  5.554333  10.582928  0.771045  4.148516  
0.0  93.25843  0.0  -7.430605  -25.539309  -83.873992  24.320167  -17.992539  -4.31468  -2.301637  -0.284826  8.226315  12.892046  2.181896  5.197948  -1.032165  -3.830123  -16.221023  -4.558948  8.689195  10.849116  8.67236  3.023355  1.741218  -2.092762  -2.209112  -0.845547  -5.656968  -6.105689  -2.123267  -5.656967  -6.105689  -2.123266  -8.582731  -11.89335  12.542967  -31.049075  52.30427  3.514944  1.849987  -45.937635  84.129032  104.415337  24.810068  32.032677  -13.889769  -3.765759  22.74718  59.411709  20.591657  54.708556  -17.26782  9.292144  -112.404865  63.394581  -14.252028  -10.589523  13.107397  0.882801  5.936265  9.822889  0.789971  4.435597  
0.0  93.25843  0.0  -7.849015  -22.780268  -83.328387  21.420654  -18.139037  -6.184514  -0.789995  -0.679766  9.536775  12.549829  1.976811  5.096501  -0.021948  -3.580384  -16.087617  -5.729469  8.633341  10.138374  6.65771  2.497806  1.535035  -2.289545  -2.439111  -1.049975  -6.170518  -6.758453  -2.644078  -6.170517  -6.758453  -2.644078  -8.761688  -13.703167  13.088847  -26.441186  52.701593  9.051422  6.09376  -43.7585  78.181514  101.052488  23.39443  31.318964  -14.987938  -2.778001  22.118732  56.808946  18.08148  53.961456  -16.768858  7.628234  -111.99223  61.921675  -14.451337  -9.460262  12.455361  1.143803  6.376898  9.330492  0.98846  4.761549  
0.0  93.25843  0.0  -8.006666  -20.35874  -83.073  20.417668  -18.054869  -6.903046  -0.914588  -1.065489  9.449771  12.163824  1.792409  4.971933  0.768383  -3.200403  -15.835501  -6.641327  8.416294  9.502396  6.236014  2.381434  1.639268  -2.610976  -2.643733  -1.170902  -7.033164  -7.341596  -2.921129  -7.033163  -7.341596  -2.921129  -7.558691  -14.419701  13.62684  -23.11721  52.72376  13.46605  7.128699  -41.425892  75.128155  99.559127  22.433451  30.236255  -15.354693  -2.084988  22.160724  55.276919  16.621389  53.02873  -16.932128  6.458481  -111.420367  61.463392  -14.444061  -8.628896  12.530974  1.795883  6.63227  9.379294  1.48387  4.939427  
0.0  93.25843  0.0  -8.14506  -18.312513  -82.914868  18.409818  -18.154401  -7.755407  0.156155  -1.404796  9.993654  11.689639  1.681745  4.820245  1.117137  -2.914811  -15.703177  -7.122956  8.277057  9.243632  5.621296  2.223075  1.689991  -2.832078  -2.839767  -1.328152  -7.61544  -7.903433  -3.305574  -7.61544  -7.903433  -3.305575  -6.885188  -14.188045  14.634319  -23.447783  52.515553  13.842805  7.097703  -40.22959  75.543325  100.570128  21.848539  29.468161  -16.066325  -1.72447  22.979724  54.184002  16.324746  52.103998  -17.408167  6.017086  -110.807709  61.199868  -14.810354  -8.336634  12.583364  2.5777  7.082245  9.407564  2.080479  5.260329  
